<?xml version="1.0" encoding="UTF-8" standalone="no" ?>
<!DOCTYPE svg PUBLIC "-//W3C//DTD SVG 1.1//EN" "http://www.w3.org/Graphics/SVG/1.1/DTD/svg11.dtd">
<svg xmlns="http://www.w3.org/2000/svg" xmlns:xlink="http://www.w3.org/1999/xlink" version="1.1" width="1080" height="1080" viewBox="0 0 1080 1080" xml:space="preserve">
<desc>Created with Fabric.js 4.2.0</desc>
<defs>
</defs>
<rect x="0" y="0" width="100%" height="100%" fill="transparent"></rect>
<g transform="matrix(1 0 0 1 540 540)" id="b26f1fca-7c45-423a-920d-f02562a8495e"  >
<rect style="stroke: none; stroke-width: 1; stroke-dasharray: none; stroke-linecap: butt; stroke-dashoffset: 0; stroke-linejoin: miter; stroke-miterlimit: 4; fill: rgb(255,255,255); fill-rule: nonzero; opacity: 1;" vector-effect="non-scaling-stroke"  x="-540" y="-540" rx="0" ry="0" width="1080" height="1080" />
</g>
<g transform="matrix(Infinity NaN NaN Infinity 0 0)" id="2c71b7b5-bb19-41a9-aa0f-2263accf3de4"  >
</g>
<g transform="matrix(6.17 0 0 6.17 540 540)" id="da3a8801-b4ec-4551-9edb-dfc861211f1b"  >
<circle style="stroke: rgb(0,0,0); stroke-width: 0; stroke-dasharray: none; stroke-linecap: butt; stroke-dashoffset: 0; stroke-linejoin: miter; stroke-miterlimit: 4; fill: rgb(109,73,181); fill-rule: nonzero; opacity: 1;" vector-effect="non-scaling-stroke"  cx="0" cy="0" r="35" />
</g>
<g transform="matrix(3.15 0 0 3.15 540 623.54)" id="ad3198ea-377c-4393-87e2-4a6cd6832253"  >
<path style="stroke: rgb(0,0,0); stroke-width: 0; stroke-dasharray: none; stroke-linecap: butt; stroke-dashoffset: 0; stroke-linejoin: miter; stroke-miterlimit: 4; fill: rgb(255,243,243); fill-rule: nonzero; opacity: 1;" vector-effect="non-scaling-stroke"  transform=" translate(-50, -50)" d="M 94.75 50 C 94.75 56.213 89.514 61.25 83.054 61.25 L 16.946 61.25 C 10.486 61.25 5.25 56.213 5.25 50 L 5.25 50 C 5.25 43.787 10.486 38.75 16.945999999999998 38.75 L 83.053 38.75 C 89.514 38.75 94.75 43.787 94.75 50 L 94.75 50 z" stroke-linecap="round" />
</g>
<g transform="matrix(3.15 0 0 3.15 540 540)"  >
<path style="stroke: rgb(0,0,0); stroke-width: 0; stroke-dasharray: none; stroke-linecap: butt; stroke-dashoffset: 0; stroke-linejoin: miter; stroke-miterlimit: 4; fill: rgb(255,243,243); fill-rule: nonzero; opacity: 1;" vector-effect="non-scaling-stroke"  transform=" translate(-50, -50)" d="M 94.75 50 C 94.75 56.213 89.514 61.25 83.054 61.25 L 16.946 61.25 C 10.486 61.25 5.25 56.213 5.25 50 L 5.25 50 C 5.25 43.787 10.486 38.75 16.945999999999998 38.75 L 83.053 38.75 C 89.514 38.75 94.75 43.787 94.75 50 L 94.75 50 z" stroke-linecap="round" />
</g>
<g transform="matrix(3.15 0 0 3.15 540 452.94)"  >
<path style="stroke: rgb(0,0,0); stroke-width: 0; stroke-dasharray: none; stroke-linecap: butt; stroke-dashoffset: 0; stroke-linejoin: miter; stroke-miterlimit: 4; fill: rgb(255,243,243); fill-rule: nonzero; opacity: 1;" vector-effect="non-scaling-stroke"  transform=" translate(-50, -50)" d="M 94.75 50 C 94.75 56.213 89.514 61.25 83.054 61.25 L 16.946 61.25 C 10.486 61.25 5.25 56.213 5.25 50 L 5.25 50 C 5.25 43.787 10.486 38.75 16.945999999999998 38.75 L 83.053 38.75 C 89.514 38.75 94.75 43.787 94.75 50 L 94.75 50 z" stroke-linecap="round" />
</g>
</svg>