<svg width="250" height="100" viewBox="0 0 250 100" fill="none" xmlns="http://www.w3.org/2000/svg">
<g filter="url(#filter0_d)">
<line y1="-2" x2="144.367" y2="-2" transform="matrix(0.99997 -0.00769638 0.00679991 0.999977 56.7885 67.7778)" stroke="#1B2129" stroke-width="4"/>
<path d="M55.483 22.9167V67.9167" stroke="#1B2129" stroke-width="4"/>
<path d="M72.4842 51.6196C71.0549 51.6196 69.6576 51.449 68.2922 51.1076C66.9269 50.745 65.8389 50.297 65.0282 49.7636L66.6922 46.1796C67.4602 46.6703 68.3882 47.0756 69.4762 47.3956C70.5642 47.6943 71.6309 47.8436 72.6762 47.8436C74.7882 47.8436 75.8442 47.321 75.8442 46.2756C75.8442 45.785 75.5562 45.433 74.9802 45.2196C74.4042 45.0063 73.5189 44.825 72.3242 44.6756C70.9162 44.4623 69.7536 44.217 68.8362 43.9396C67.9189 43.6623 67.1189 43.1716 66.4362 42.4676C65.7749 41.7636 65.4442 40.761 65.4442 39.4596C65.4442 38.3716 65.7536 37.4116 66.3722 36.5796C67.0122 35.7263 67.9296 35.065 69.1242 34.5956C70.3402 34.1263 71.7696 33.8916 73.4122 33.8916C74.6282 33.8916 75.8336 34.0303 77.0282 34.3076C78.2442 34.5636 79.2469 34.9263 80.0362 35.3956L78.3722 38.9476C76.8576 38.0943 75.2042 37.6676 73.4122 37.6676C72.3456 37.6676 71.5456 37.817 71.0122 38.1156C70.4789 38.4143 70.2122 38.7983 70.2122 39.2676C70.2122 39.801 70.5002 40.1743 71.0762 40.3876C71.6522 40.601 72.5696 40.8036 73.8282 40.9956C75.2362 41.2303 76.3882 41.4863 77.2842 41.7636C78.1802 42.0196 78.9589 42.4996 79.6202 43.2036C80.2816 43.9076 80.6122 44.889 80.6122 46.1476C80.6122 47.2143 80.2922 48.1636 79.6522 48.9956C79.0122 49.8276 78.0736 50.4783 76.8362 50.9476C75.6202 51.3956 74.1696 51.6196 72.4842 51.6196ZM94.1562 33.8916C96.2896 33.8916 98.0069 34.5316 99.3082 35.8116C100.631 37.0916 101.292 38.9903 101.292 41.5076V51.3636H96.3002V42.2756C96.3002 40.9103 96.0016 39.897 95.4042 39.2356C94.8069 38.553 93.9429 38.2116 92.8122 38.2116C91.5536 38.2116 90.5509 38.6063 89.8042 39.3956C89.0576 40.1636 88.6842 41.3156 88.6842 42.8516V51.3636H83.6922V27.6196H88.6842V35.9396C89.3456 35.2783 90.1456 34.777 91.0842 34.4356C92.0229 34.073 93.0469 33.8916 94.1562 33.8916ZM122.869 42.8196C122.869 42.8836 122.837 43.3316 122.773 44.1636H109.749C109.983 45.2303 110.538 46.073 111.413 46.6916C112.287 47.3103 113.375 47.6196 114.677 47.6196C115.573 47.6196 116.362 47.4916 117.045 47.2356C117.749 46.9583 118.399 46.5316 118.997 45.9556L121.653 48.8356C120.031 50.6916 117.663 51.6196 114.549 51.6196C112.607 51.6196 110.89 51.2463 109.397 50.4996C107.903 49.7316 106.751 48.6756 105.941 47.3316C105.13 45.9876 104.725 44.4623 104.725 42.7556C104.725 41.0703 105.119 39.5556 105.909 38.2116C106.719 36.8463 107.818 35.7903 109.205 35.0436C110.613 34.2756 112.181 33.8916 113.909 33.8916C115.594 33.8916 117.119 34.2543 118.485 34.9796C119.85 35.705 120.917 36.7503 121.685 38.1156C122.474 39.4596 122.869 41.0276 122.869 42.8196ZM113.941 37.6676C112.81 37.6676 111.861 37.9876 111.093 38.6276C110.325 39.2676 109.855 40.1423 109.685 41.2516H118.165C117.994 40.1636 117.525 39.2996 116.757 38.6596C115.989 37.9983 115.05 37.6676 113.941 37.6676ZM126.192 27.6196H131.184V51.3636H126.192V27.6196ZM152.905 34.1476L145.641 51.3636H140.489L133.257 34.1476H138.409L143.177 45.8596L148.105 34.1476H152.905ZM171.337 42.8196C171.337 42.8836 171.305 43.3316 171.241 44.1636H158.217C158.452 45.2303 159.007 46.073 159.881 46.6916C160.756 47.3103 161.844 47.6196 163.145 47.6196C164.041 47.6196 164.831 47.4916 165.513 47.2356C166.217 46.9583 166.868 46.5316 167.465 45.9556L170.121 48.8356C168.5 50.6916 166.132 51.6196 163.017 51.6196C161.076 51.6196 159.359 51.2463 157.865 50.4996C156.372 49.7316 155.22 48.6756 154.409 47.3316C153.599 45.9876 153.193 44.4623 153.193 42.7556C153.193 41.0703 153.588 39.5556 154.377 38.2116C155.188 36.8463 156.287 35.7903 157.673 35.0436C159.081 34.2756 160.649 33.8916 162.377 33.8916C164.063 33.8916 165.588 34.2543 166.953 34.9796C168.319 35.705 169.385 36.7503 170.153 38.1156C170.943 39.4596 171.337 41.0276 171.337 42.8196ZM162.409 37.6676C161.279 37.6676 160.329 37.9876 159.561 38.6276C158.793 39.2676 158.324 40.1423 158.153 41.2516H166.633C166.463 40.1636 165.993 39.2996 165.225 38.6596C164.457 37.9983 163.519 37.6676 162.409 37.6676ZM192.197 27.6196V51.3636H187.429V49.3796C186.192 50.873 184.4 51.6196 182.053 51.6196C180.432 51.6196 178.96 51.257 177.637 50.5316C176.336 49.8063 175.312 48.7716 174.565 47.4276C173.818 46.0836 173.445 44.5263 173.445 42.7556C173.445 40.985 173.818 39.4276 174.565 38.0836C175.312 36.7396 176.336 35.705 177.637 34.9796C178.96 34.2543 180.432 33.8916 182.053 33.8916C184.25 33.8916 185.968 34.585 187.205 35.9716V27.6196H192.197ZM182.917 47.5236C184.176 47.5236 185.221 47.097 186.053 46.2436C186.885 45.369 187.301 44.2063 187.301 42.7556C187.301 41.305 186.885 40.153 186.053 39.2996C185.221 38.425 184.176 37.9876 182.917 37.9876C181.637 37.9876 180.581 38.425 179.749 39.2996C178.917 40.153 178.501 41.305 178.501 42.7556C178.501 44.2063 178.917 45.369 179.749 46.2436C180.581 47.097 181.637 47.5236 182.917 47.5236Z" fill="#1B2129"/>
</g>
<defs>
<filter id="filter0_d" x="-2" y="0" width="254" height="106" filterUnits="userSpaceOnUse" color-interpolation-filters="sRGB">
<feFlood flood-opacity="0" result="BackgroundImageFix"/>
<feColorMatrix in="SourceAlpha" type="matrix" values="0 0 0 0 0 0 0 0 0 0 0 0 0 0 0 0 0 0 127 0"/>
<feOffset dy="4"/>
<feGaussianBlur stdDeviation="1"/>
<feColorMatrix type="matrix" values="0 0 0 0 0 0 0 0 0 0 0 0 0 0 0 0 0 0 0.1 0"/>
<feBlend mode="normal" in2="BackgroundImageFix" result="effect1_dropShadow"/>
<feBlend mode="normal" in="SourceGraphic" in2="effect1_dropShadow" result="shape"/>
</filter>
</defs>
</svg>
